<svg width="293" height="293" viewBox="0 0 293 293" fill="none" xmlns="http://www.w3.org/2000/svg">
<g clip-path="url(#clip0_49_72)">
<rect width="293" height="293" fill="white"/>
<rect x="-6.98242" y="0.809387" width="291" height="291" fill="#FFC700"/>
<path d="M56.8061 80.2653C55.4413 77.3083 59.2595 70.9486 60.291 68.5269C62.5192 63.2953 65.1708 58.1526 67.5358 53.0286" stroke="#F7B712" stroke-width="20"/>
<path d="M58.457 161.15C63.6811 153.864 67.1813 145.463 71.571 137.674C75.8809 130.026 80.6749 124.544 86.5192 118.232" stroke="#F7B712" stroke-width="20"/>
<path d="M76.6147 211.497C82.8179 203.507 89.293 195.517 96.4233 188.387" stroke="#F7B712" stroke-width="20"/>
<path d="M77.4402 247.813C88.1204 237.809 100.539 230.712 112.931 223.052" stroke="#F7B712" stroke-width="20"/>
<path d="M123.66 241.21C130.315 240.323 136.346 233.558 140.901 229.196C148.655 221.772 155.222 213.433 161.627 204.894" stroke="#F7B712" stroke-width="20"/>
<path d="M135.215 151.246C140.242 143.257 145.602 136.052 153.373 130.612" stroke="#F7B712" stroke-width="20"/>
<path d="M126.961 115.756C130.135 108.009 133.778 100.366 136.866 92.6457" stroke="#F7B712" stroke-width="20"/>
<path d="M117.057 94.2964C117.494 75.9658 122.858 58.1342 130.263 41.4736" stroke="#F7B712" stroke-width="20"/>
<path d="M103.026 56.33C112.022 48.5689 118.699 41.6916 130.263 38.1722" stroke="#F7B712" stroke-width="20"/>
<path d="M164.103 68.7104C171.263 59.7597 178.395 50.7859 185.562 41.8404C187.424 39.5164 188.311 38.228 190.514 37.3468" stroke="#F7B712" stroke-width="20"/>
<path d="M176.483 99.2486C183.285 92.2886 191.576 80.2654 202.069 80.2654" stroke="#F7B712" stroke-width="20"/>
<path d="M192.165 133.088C197.462 125.561 205.159 120.394 213.624 117.406" stroke="#F7B712" stroke-width="20"/>
<path d="M200.418 182.61C202.995 183.006 207.564 177.189 210.322 176.007" stroke="#F7B712" stroke-width="20"/>
<path d="M209.497 218.1C211.92 217.831 212.181 217.344 214.449 218.1" stroke="#F7B712" stroke-width="20"/>
<path d="M212.799 265.971C219.349 262.422 225.572 259.237 232.607 256.892" stroke="#F7B712" stroke-width="20"/>
<path d="M240.035 264.32C242.91 260.401 246.758 256.533 248.289 251.94" stroke="#F7B712" stroke-width="20"/>
<path d="M249.114 234.607C250.405 226.575 251.742 218.762 252.416 210.672" stroke="#F7B712" stroke-width="20"/>
<path d="M234.258 194.99C238.675 177.761 247.583 162.717 257.643 148.22C260.094 144.688 255.083 145.236 252.416 144.643" stroke="#F7B712" stroke-width="20"/>
<path d="M249.94 133.088C253.954 120.854 256.543 107.932 256.543 95.1218" stroke="#F7B712" stroke-width="20"/>
<path d="M235.083 89.3443C235.782 79.355 236.804 69.5135 238.385 59.6315" stroke="#F7B712" stroke-width="20"/>
<path d="M228.48 60.4568C228.808 57.4287 229.072 54.4114 229.306 51.3779" stroke="#F7B712" stroke-width="20"/>
<path d="M216.925 48.9018C217.7 45.9012 217.751 42.9049 217.751 39.8229" stroke="#F7B712" stroke-width="20"/>
<path d="M133.564 178.483C151.397 169.567 169.25 160.72 187.213 152.071" stroke="#F7B712" stroke-width="20"/>
<path d="M145.119 200.768C143.09 200.463 141.882 199.321 140.167 198.291" stroke="#F7B712" stroke-width="20"/>
<path d="M129.438 145.469C130.162 142.655 130.999 139.958 131.914 137.215" stroke="#F7B712" stroke-width="20"/>
<path d="M79.9163 168.579C84.2018 157.91 88.0851 147.08 92.2966 136.39" stroke="#F7B712" stroke-width="20"/>
<path d="M37.823 199.117C47.2611 190.88 55.8908 182.919 67.5358 178.483" stroke="#F7B712" stroke-width="20"/>
<path d="M41.9497 238.734C47.8693 235.474 53.7708 232.717 60.1076 230.48" stroke="#F7B712" stroke-width="20"/>
<path d="M60.9331 256.066C80.452 245.744 99.6002 232.251 120.359 224.703" stroke="#F7B712" stroke-width="20"/>
<path d="M110.454 252.765C111.114 258.044 122.067 250.11 123.477 249.418C130.368 246.032 134.812 243.797 142.001 240.981C148.531 238.423 154.192 237.76 160.801 236.258" stroke="#F7B712" stroke-width="20"/>
<path d="M166.579 255.241C173.157 250.181 180.31 245.812 187.213 241.21" stroke="#F7B712" stroke-width="20"/>
<path d="M163.277 269.272C166.785 262.2 170.351 255.171 173.182 247.813" stroke="#F7B712" stroke-width="20"/>
<path d="M55.981 123.184C60.1964 114.753 63.9996 106.303 67.536 97.5978" stroke="#F7B712" stroke-width="20"/>
<path d="M17.189 109.153C21.7051 100.288 25.8284 89.7838 32.8707 82.7415" stroke="#F7B712" stroke-width="20"/>
<path d="M41.1245 72.8371C41.7647 67.289 43.4471 61.9959 45.1596 56.6968C46.0507 53.9395 47.1733 53.0286 44.4259 53.0286" stroke="#F7B712" stroke-width="20"/>
<path d="M46.0767 49.7272C47.4229 46.1693 49.5703 44.2422 52.6795 42.299" stroke="#F7B712" stroke-width="20"/>
<path d="M56.8062 53.854C60.7665 50.3977 64.4678 46.5851 68.3611 43.1243" stroke="#F7B712" stroke-width="20"/>
<path d="M70.8374 70.3611C74.6037 67.301 78.3613 64.2246 82.3924 61.5114C86.4697 58.7671 89.7377 58.1342 93.9474 56.33" stroke="#F7B712" stroke-width="20"/>
<path d="M89.8206 105.026C98.0999 98.5465 105.984 91.9537 114.581 86.0428" stroke="#F7B712" stroke-width="20"/>
<path d="M113.756 109.153C117.967 106.281 122.477 104.127 126.962 101.725" stroke="#F7B712" stroke-width="20"/>
<path d="M126.961 148.77C131.541 141.765 136.215 136.408 143.469 132.263" stroke="#F7B712" stroke-width="20"/>
<path d="M131.088 190.863C139.934 182.929 148.716 174.93 157.5 166.928" stroke="#F7B712" stroke-width="20"/>
<path d="M137.691 211.497C156.396 198.06 172.944 184.213 187.213 166.102" stroke="#F7B712" stroke-width="20"/>
<path d="M160.801 210.672C168.696 199.181 176.879 188.453 185.562 177.657" stroke="#F7B712" stroke-width="20"/>
<path d="M163.277 198.291C170.08 188.855 176.726 179.454 185.562 171.88" stroke="#F7B712" stroke-width="20"/>
<path d="M165.753 214.799C177.936 203.553 188.79 190.339 200.418 178.483" stroke="#F7B712" stroke-width="20"/>
<path d="M192.99 203.244C196.638 199.506 199.725 195.763 202.895 191.689" stroke="#F7B712" stroke-width="20"/>
<path d="M206.196 196.641C214.24 183.295 220.984 169.027 228.48 155.373" stroke="#F7B712" stroke-width="20"/>
<path d="M-15 -13C-9.82942 -7.82942 -4.56358 -1.27726 1.87396 2.31496C14.9744 9.62513 35.1445 2.08321 48.8276 0.0222988C70.98 -3.31423 93.0622 -3.09572 115.406 -3.09572C134.564 -3.09572 153.858 -3.74295 172.998 -2.72889C186.13 -2.03314 199.202 -1.72421 212.34 -1.26159C223.141 -0.881278 233.816 0.792296 244.621 1.03107C254.493 1.24923 266.497 1.67765 276.076 4.51591C279.65 5.57476 283.331 5.81462 286.897 6.80857C290.858 7.91228 290.716 10.8496 291.391 14.6036C293.663 27.2387 293.387 40.7203 292.216 53.4871C291.407 62.3028 288.689 71.2043 287.264 79.9902C285.176 92.8641 286.255 106.42 286.255 119.424C286.255 139.299 285.43 159.151 285.43 179.033C285.43 187.436 285.547 195.85 285.43 204.252C285.313 212.697 283.156 220.797 282.954 229.196C282.572 245.045 282.129 260.843 282.129 276.7C282.129 283.766 283.532 290.591 283.779 297.518C284.018 304.191 272.074 299.79 268.097 298.985C257.388 296.816 246.601 297.334 235.725 297.334C211.329 297.334 186.888 296.509 162.452 296.509C106.939 296.509 51.426 296.509 -4.08695 296.509C-6.15609 296.509 -8.13726 297.184 -8.58056 294.766C-9.23768 291.182 -10.0248 287.672 -10.8732 284.129C-11.9719 279.54 -14.3035 272.926 -12.9825 268.263C-11.6825 263.675 -8.15183 259.902 -6.56302 255.424C-5.60286 252.719 -4.64134 249.964 -3.445 247.354C-1.66059 243.461 -2.13662 239.936 -1.42746 235.799C-0.452413 230.111 1.69419 224.96 2.3325 219.109C3.07281 212.323 3.37069 205.47 3.7998 198.658C4.59011 186.112 2.04977 174.455 -0.143575 162.159C-1.44723 154.851 -1.52216 147.441 -2.80306 140.15C-4.31453 131.546 -6.50751 123.071 -8.03032 114.472C-9.64344 105.362 -9.81696 95.1991 -9.03909 85.9511C-8.26348 76.73 -5.48281 67.849 -3.81183 58.8061C-2.27112 50.4681 -2.67651 41.7279 -0.968932 33.4034C0.458621 26.4441 -0.143575 19.1994 -0.143575 12.1275C-0.143575 7.07276 1.50714 2.69431 1.50714 -2.27036" stroke="#C0A151" stroke-width="20"/>
</g>
<defs>
<clipPath id="clip0_49_72">
<rect width="293" height="293" fill="white"/>
</clipPath>
</defs>
</svg>
